<?xml version="1.0"?>
<svg xmlns="http://www.w3.org/2000/svg" xmlns:xlink="http://www.w3.org/1999/xlink" xmlns:svgjs="http://svgjs.com/svgjs" version="1.1" width="512" height="512" x="0" y="0" viewBox="0 0 512 512" style="enable-background:new 0 0 512 512" xml:space="preserve" class=""><g>
<circle xmlns="http://www.w3.org/2000/svg" style="" cx="256" cy="256" r="256" fill="#01579a" data-original="#01579a" class=""/>
<g xmlns="http://www.w3.org/2000/svg">
	<path style="" d="M354.932,137.609L509.45,292.128C511.118,280.323,512,268.266,512,256   c0-2.603-0.051-5.193-0.128-7.776L378.095,114.446L354.932,137.609z" fill="#004370" data-original="#004370" class=""/>
	<path style="" d="M285.721,510.273c112.261-12.982,202.398-98.569,222.213-208.605L266,59.733L246,92.49   l89.677,89.677l-30.962,74.809L171.209,123.47l-14.143,14.143l139.369,139.369l-30.962,74.808L126.087,212.403l-32.757,20   l156.7,156.7l-3.236,7.818l-75.585-75.585L148.046,344.5l85.187,85.187l-8.225,19.873L285.721,510.273z" fill="#004370" data-original="#004370" class=""/>
</g>
<path xmlns="http://www.w3.org/2000/svg" style="" d="M367.673,217.178c0-62.204-50.859-112.53-113.263-111.662  c-59.495,0.828-108.326,48.897-110.036,108.373c-0.726,25.268,6.946,48.712,20.43,67.749c19.455,27.468,33.111,58.61,38.928,91.764  l7.599,43.312h89.338l8.039-45.82c5.627-32.072,18.982-62.144,38.001-88.575C359.902,263.986,367.673,241.491,367.673,217.178z" fill="#e6e6e6" data-original="#fee900" class=""/>
<path xmlns="http://www.w3.org/2000/svg" style="" d="M255.571,105.515v311.199h45.098l8.039-45.82c5.627-32.072,18.982-62.144,38.001-88.575  c13.193-18.334,20.964-40.829,20.964-65.142C367.673,155.361,317.442,105.284,255.571,105.515z" fill="#ffffff" data-original="#fed500" class=""/>
<polygon xmlns="http://www.w3.org/2000/svg" style="" points="286.401,408.977 266.546,406.584 287.53,232.403 224.47,232.403 245.454,406.584   225.599,408.977 201.915,212.403 310.085,212.403 " fill="#fe9000" data-original="#fe9000" class=""/>
<polygon xmlns="http://www.w3.org/2000/svg" style="" points="255.571,212.403 255.571,232.403 287.53,232.403 266.546,406.584 286.401,408.977   310.085,212.403 " fill="#fa8b00" data-original="#fa8b00" class=""/>
<path xmlns="http://www.w3.org/2000/svg" style="" d="M255.997,460.267L255.997,460.267c-27.756,0-50.256-22.5-50.256-50.256v-25.123h100.512v25.123  C306.253,437.766,283.752,460.267,255.997,460.267z" fill="#ffffff" data-original="#ffffff" class=""/>
<path xmlns="http://www.w3.org/2000/svg" style="" d="M255.571,384.888v75.368c0.143,0.001,0.283,0.011,0.425,0.011l0,0  c27.756,0,50.256-22.5,50.256-50.256v-25.123L255.571,384.888L255.571,384.888z" fill="#e6e6e6" data-original="#e6e6e6" class=""/>
<rect xmlns="http://www.w3.org/2000/svg" x="385.91" y="212.4" style="" width="32.757" height="20" fill="#fef49c" data-original="#fef49c" class=""/>
<g xmlns="http://www.w3.org/2000/svg">
	<rect x="93.33" y="212.4" style="" width="32.757" height="20" fill="#fef8c3" data-original="#fef8c3" class=""/>
	<rect x="246" y="59.733" style="" width="20" height="32.757" fill="#fef8c3" data-original="#fef8c3" class=""/>
</g>
<g xmlns="http://www.w3.org/2000/svg">
	<rect x="255.57" y="59.733" style="" width="10.429" height="32.757" fill="#fef49c" data-original="#fef49c" class=""/>
	
		<rect x="343.062" y="315.838" transform="matrix(-0.7071 -0.7071 0.7071 -0.7071 383.2016 810.403)" style="" width="32.758" height="20" fill="#fef49c" data-original="#fef49c" class=""/>
</g>
<rect xmlns="http://www.w3.org/2000/svg" x="136.179" y="108.961" transform="matrix(-0.7071 -0.7071 0.7071 -0.7071 176.3144 310.9539)" style="" width="32.758" height="20" fill="#fef8c3" data-original="#fef8c3" class=""/>
<rect xmlns="http://www.w3.org/2000/svg" x="349.434" y="102.577" transform="matrix(-0.7071 -0.7071 0.7071 -0.7071 529.4778 457.2288)" style="" width="20" height="32.758" fill="#fef49c" data-original="#fef49c" class=""/>
<rect xmlns="http://www.w3.org/2000/svg" x="142.547" y="309.465" transform="matrix(-0.7071 -0.7071 0.7071 -0.7071 30.0081 664.1177)" style="" width="20" height="32.758" fill="#fef8c3" data-original="#fef8c3" class=""/>
<g xmlns="http://www.w3.org/2000/svg">
</g>
<g xmlns="http://www.w3.org/2000/svg">
</g>
<g xmlns="http://www.w3.org/2000/svg">
</g>
<g xmlns="http://www.w3.org/2000/svg">
</g>
<g xmlns="http://www.w3.org/2000/svg">
</g>
<g xmlns="http://www.w3.org/2000/svg">
</g>
<g xmlns="http://www.w3.org/2000/svg">
</g>
<g xmlns="http://www.w3.org/2000/svg">
</g>
<g xmlns="http://www.w3.org/2000/svg">
</g>
<g xmlns="http://www.w3.org/2000/svg">
</g>
<g xmlns="http://www.w3.org/2000/svg">
</g>
<g xmlns="http://www.w3.org/2000/svg">
</g>
<g xmlns="http://www.w3.org/2000/svg">
</g>
<g xmlns="http://www.w3.org/2000/svg">
</g>
<g xmlns="http://www.w3.org/2000/svg">
</g>
</g></svg>
